<?xml version="1.0" encoding="UTF-8" standalone="no"?>
<!-- Created with Inkscape (http://www.inkscape.org/) -->

<svg
   xmlns:dc="http://purl.org/dc/elements/1.1/"
   xmlns:cc="http://creativecommons.org/ns#"
   xmlns:rdf="http://www.w3.org/1999/02/22-rdf-syntax-ns#"
   xmlns:svg="http://www.w3.org/2000/svg"
   xmlns="http://www.w3.org/2000/svg"
   xmlns:sodipodi="http://sodipodi.sourceforge.net/DTD/sodipodi-0.dtd"
   xmlns:inkscape="http://www.inkscape.org/namespaces/inkscape"
   width="1000"
   height="1000"
   id="svg2"
   version="1.1"
   inkscape:version="0.48.3.1 r9886"
   sodipodi:docname="mainicon.svg">
  <defs
     id="defs4" />
  <sodipodi:namedview
     id="base"
     pagecolor="#ffffff"
     bordercolor="#666666"
     borderopacity="1.0"
     inkscape:pageopacity="0.0"
     inkscape:pageshadow="2"
     inkscape:zoom="0.5"
     inkscape:cx="-111.16328"
     inkscape:cy="463.69288"
     inkscape:document-units="px"
     inkscape:current-layer="layer1"
     showgrid="false"
     inkscape:window-width="1600"
     inkscape:window-height="851"
     inkscape:window-x="0"
     inkscape:window-y="25"
     inkscape:window-maximized="1"
     showguides="true"
     inkscape:guide-bbox="true"
     inkscape:snap-nodes="false"
     inkscape:object-nodes="false"
     inkscape:object-paths="true"
     inkscape:snap-global="false" />
  <metadata
     id="metadata7">
    <rdf:RDF>
      <cc:Work
         rdf:about="">
        <dc:format>image/svg+xml</dc:format>
        <dc:type
           rdf:resource="http://purl.org/dc/dcmitype/StillImage" />
      </cc:Work>
    </rdf:RDF>
  </metadata>
  <g
     inkscape:label="Layer 1"
     inkscape:groupmode="layer"
     id="layer1"
     transform="translate(0,-52.362183)">
    <g
       id="g3"
       transform="matrix(2.9440016,0,0,2.9984178,77.517727,87.25182)"
       style="fill:#000000">
      <path
         id="path5"
         d="m 141.34166,46.113451 c 8.40039,1.028834 16.43475,3.224238 23.90176,6.544357 l 6.8572,-17.983284 21.38567,12.605497 -11.32205,15.338908 c 6.62833,5.059701 12.51188,11.0729 17.47548,17.837939 l 14.71635,-12.011939 12.39036,21.835323 -17.25928,7.490241 c 3.28621,7.621127 5.48397,15.870827 6.45164,24.520787 l 18.49011,-3.03779 0.0544,25.23915 -18.54454,-2.33314 c -0.96767,8.56778 -3.16543,16.77562 -6.41213,24.39675 l 17.39497,6.94539 -12.30239,21.88327 -14.93926,-11.47318 c -4.95689,6.72395 -10.84865,12.78509 -17.51648,17.84555 l 11.67318,14.88994 -21.34467,12.68844 -7.29033,-17.53431 c -7.47299,3.27218 -15.55505,5.51552 -23.94128,6.50326 l 2.8128,18.83253 -24.69498,0.0822 2.28274,-19.13616 c -8.38623,-0.85533 -16.42803,-3.09944 -23.894314,-6.46141 l -6.854177,17.85239 -21.395365,-12.51647 11.335465,-15.38076 c -6.631303,-5.07416 -12.52157,-11.12084 -17.44193,-17.89349 L 48.654003,195.70223 36.26066,173.9567 53.655623,166.37666 c -3.201961,-7.58004 -5.39674,-15.73994 -6.320426,-24.25826 l -18.761481,2.77527 -0.04398,-25.15545 18.845724,2.33314 c 0.966925,-8.65681 3.165431,-16.76877 6.41436,-24.348807 L 36.083974,90.639431 48.389347,68.8452 63.586549,80.49796 C 68.556858,73.732921 74.441161,67.726571 81.075447,62.660021 L 69.168921,47.500703 90.516574,34.902054 97.942586,52.70575 c 7.466284,-3.32773 15.508084,-5.564226 23.901024,-6.544358 l -2.9045,-19.149854 24.68828,0 -2.28573,19.101913 z"
         clip-rule="evenodd"
         inkscape:connector-curvature="0"
         style="fill:#000000;fill-rule:evenodd"
         sodipodi:nodetypes="cccccccccccccccccccccccccccccccccccccccccccccccccc" />
    </g>
    <rect
       style="fill:#552200;fill-opacity:1;stroke:none"
       id="rect4238"
       width="182.69298"
       height="18.135073"
       x="388.91043"
       y="38.200264"
       transform="matrix(0.99496382,0.10023469,-0.04127657,0.99914776,0,0)" />
    <path
       sodipodi:type="arc"
       style="fill:#ffffff;stroke-width:5;stroke-miterlimit:4;stroke-dasharray:none"
       id="path3907"
       sodipodi:cx="366.42856"
       sodipodi:cy="837.36218"
       sodipodi:rx="43.57143"
       sodipodi:ry="43.57143"
       d="m 409.99999,837.36218 a 43.57143,43.57143 0 1 1 0,-0.003 l -43.57143,0.003 z"
       sodipodi:start="0"
       sodipodi:end="6.2831189"
       transform="matrix(1.4998495,0,0,1.4998495,-161.12912,-902.50044)" />
    <path
       style="fill:#ffffff;stroke:#000000;stroke-width:7.49924755;stroke-linecap:butt;stroke-linejoin:miter;stroke-miterlimit:4;stroke-opacity:1;stroke-dasharray:none"
       d="m 359.755,362.15564 c 28.79205,-41.2554 52.78407,-2.50458 54.13941,-2.40778"
       id="path3929"
       inkscape:connector-curvature="0"
       sodipodi:nodetypes="cc" />
    <path
       sodipodi:type="arc"
       style="fill:#ffffff;stroke-width:5;stroke-miterlimit:4;stroke-dasharray:none"
       id="path3907-2"
       sodipodi:cx="366.42856"
       sodipodi:cy="837.36218"
       sodipodi:rx="43.57143"
       sodipodi:ry="43.57143"
       d="m 409.99999,837.36218 a 43.57143,43.57143 0 1 1 0,-0.003 l -43.57143,0.003 z"
       sodipodi:start="0"
       sodipodi:end="6.2831189"
       transform="matrix(1.4998495,0,0,1.4998495,-13.903371,-903.68994)" />
    <path
       style="fill:#ffffff;stroke:#000000;stroke-width:7.49924755;stroke-linecap:butt;stroke-linejoin:miter;stroke-miterlimit:4;stroke-opacity:1;stroke-dasharray:none"
       d="m 505.9202,363.61753 c 28.79204,-41.2554 52.78407,-2.50458 54.13941,-2.40778"
       id="path3929-2"
       inkscape:connector-curvature="0"
       sodipodi:nodetypes="cc" />
    <path
       sodipodi:type="arc"
       style="fill:#ff0000;stroke-width:5;stroke-miterlimit:4;stroke-dasharray:none"
       id="path3960"
       sodipodi:cx="389.26227"
       sodipodi:cy="440.36127"
       sodipodi:rx="37.123104"
       sodipodi:ry="32.880466"
       d="m 426.38537,440.36127 a 37.123104,32.880466 0 1 1 0,-0.002 l -37.1231,0.002 z"
       sodipodi:start="0"
       sodipodi:end="6.2831189"
       transform="matrix(1.4998495,0,0,1.4998495,-120.26818,-174.08824)" />
    <rect
       style="fill:#ffffff;stroke-width:5;stroke-miterlimit:4;stroke-dasharray:none"
       id="rect3962"
       width="9.0147066"
       height="7.9541535"
       x="595.86145"
       y="297.26849"
       transform="matrix(0.95897949,0.28347546,-0.28347546,0.95897949,0,0)" />
    <rect
       style="fill:#ffffff;stroke-width:5;stroke-miterlimit:4;stroke-dasharray:none"
       id="rect3964"
       width="4.7724919"
       height="6.8936"
       x="605.68042"
       y="312.24097"
       transform="matrix(0.96173113,0.27399494,-0.27399494,0.96173113,0,0)" />
    <path
       style="fill:#ffffff;stroke:#000000;stroke-width:1.49984956px;stroke-linecap:butt;stroke-linejoin:miter;stroke-opacity:1"
       d="m 342.23571,650.72023 c -40.02423,-32.289 -32.71878,-40.14136 -32.69499,-57.74052 13.73853,-23.60736 35.70891,-32.37354 61.34869,-30.88107 28.65897,13.99181 49.57913,38.69332 85.97695,41.97543 46.34148,-3.46159 72.73305,-21.75542 102.46417,-36.39673 30.91358,-2.29807 44.85459,10.81138 47.50612,34.16935 1.93791,19.54202 -0.32128,38.01025 -21.72259,51.58125 -40.57791,15.90314 -71.69836,37.12057 -131.56059,42.1876 -33.15538,-1.49569 -70.00223,-27.46505 -111.31776,-44.89531 z"
       id="path3985"
       inkscape:connector-curvature="0"
       sodipodi:nodetypes="ccccccccc" />
    <path
       style="fill:none;stroke:#000000;stroke-width:11.99879646;stroke-linecap:butt;stroke-linejoin:miter;stroke-miterlimit:4;stroke-opacity:1;stroke-dasharray:none"
       d="m 416.03516,626.9461 c 48.44702,51.89856 84.46286,2.33531 84.0987,1.60698"
       id="path3131"
       inkscape:connector-curvature="0"
       sodipodi:nodetypes="cc" />
    <path
       sodipodi:type="arc"
       style="fill:#00ff00;stroke-width:8;stroke-miterlimit:4;stroke-dasharray:none"
       id="path4057"
       sodipodi:cx="558.5"
       sodipodi:cy="341.86218"
       sodipodi:rx="26.5"
       sodipodi:ry="25.5"
       d="m 585,341.86218 a 26.5,25.5 0 1 1 -2.1e-4,-0.10222 L 558.5,341.86218 z"
       sodipodi:start="0"
       sodipodi:end="6.2791766"
       transform="matrix(1.4998495,0,0,1.4998495,-166.50875,-232.90026)" />
    <path
       sodipodi:type="arc"
       style="fill:#00ff00;stroke-width:8;stroke-miterlimit:4;stroke-dasharray:none"
       id="path4059"
       sodipodi:cx="596.5"
       sodipodi:cy="329.86218"
       sodipodi:rx="25.5"
       sodipodi:ry="20.5"
       d="m 622,329.86218 a 25.5,20.5 0 1 1 -2e-4,-0.0822 l -25.4998,0.0822 z"
       sodipodi:start="0"
       sodipodi:end="6.2791766"
       transform="matrix(1.4998495,0,0,1.4998495,-166.50875,-232.90026)" />
    <path
       sodipodi:type="arc"
       style="fill:#00ff00;stroke-width:8;stroke-miterlimit:4;stroke-dasharray:none"
       id="path4061"
       sodipodi:cx="630"
       sodipodi:cy="331.36218"
       sodipodi:rx="18"
       sodipodi:ry="10"
       d="m 648,331.36218 a 18,10 0 1 1 -1.4e-4,-0.0401 L 630,331.36218 z"
       sodipodi:start="0"
       sodipodi:end="6.2791766"
       transform="matrix(1.4998495,0,0,1.4998495,-166.50875,-232.90026)" />
    <path
       sodipodi:type="arc"
       style="fill:#00ff00;stroke-width:8;stroke-miterlimit:4;stroke-dasharray:none"
       id="path4063"
       sodipodi:cx="653.5"
       sodipodi:cy="340.36218"
       sodipodi:rx="13.5"
       sodipodi:ry="6"
       d="m 667,340.36218 a 13.5,6 0 1 1 -1.1e-4,-0.0241 L 653.5,340.36218 z"
       sodipodi:start="0"
       sodipodi:end="6.2791766"
       transform="matrix(1.4998495,0,0,1.4998495,-166.50875,-232.90026)" />
    <path
       transform="matrix(-1.4998495,0,0,1.4998495,1097.698,-233.45762)"
       sodipodi:type="arc"
       style="fill:#00ff00;stroke-width:8;stroke-miterlimit:4;stroke-dasharray:none"
       id="path4057-8"
       sodipodi:cx="558.5"
       sodipodi:cy="341.86218"
       sodipodi:rx="26.5"
       sodipodi:ry="25.5"
       d="m 585,341.86218 a 26.5,25.5 0 1 1 -2.1e-4,-0.10222 L 558.5,341.86218 z"
       sodipodi:start="0"
       sodipodi:end="6.2791766" />
    <path
       transform="matrix(-1.4998495,0,0,1.4998495,1097.698,-233.45762)"
       sodipodi:type="arc"
       style="fill:#00ff00;stroke-width:8;stroke-miterlimit:4;stroke-dasharray:none"
       id="path4059-9"
       sodipodi:cx="596.5"
       sodipodi:cy="329.86218"
       sodipodi:rx="25.5"
       sodipodi:ry="20.5"
       d="m 622,329.86218 a 25.5,20.5 0 1 1 -2e-4,-0.0822 l -25.4998,0.0822 z"
       sodipodi:start="0"
       sodipodi:end="6.2791766" />
    <path
       transform="matrix(-1.4998495,0,0,1.4998495,1097.698,-233.45762)"
       sodipodi:type="arc"
       style="fill:#00ff00;stroke-width:8;stroke-miterlimit:4;stroke-dasharray:none"
       id="path4061-7"
       sodipodi:cx="630"
       sodipodi:cy="331.36218"
       sodipodi:rx="18"
       sodipodi:ry="10"
       d="m 648,331.36218 a 18,10 0 1 1 -1.4e-4,-0.0401 L 630,331.36218 z"
       sodipodi:start="0"
       sodipodi:end="6.2791766" />
    <path
       transform="matrix(-1.4998495,0,0,1.4998495,1097.698,-233.45762)"
       sodipodi:type="arc"
       style="fill:#00ff00;stroke-width:8;stroke-miterlimit:4;stroke-dasharray:none"
       id="path4063-3"
       sodipodi:cx="653.5"
       sodipodi:cy="340.36218"
       sodipodi:rx="13.5"
       sodipodi:ry="6"
       d="m 667,340.36218 a 13.5,6 0 1 1 -1.1e-4,-0.0241 L 653.5,340.36218 z"
       sodipodi:start="0"
       sodipodi:end="6.2791766" />
    <path
       style="fill:#552200;stroke:#000000;stroke-width:1.98136199px;stroke-linecap:butt;stroke-linejoin:miter;stroke-opacity:1"
       d="m 261.59702,174.57479 c 13.44774,-17.96342 37.01981,-24.00793 66.02653,-23.65457 45.52979,-1.30122 91.28146,-0.27454 137.89538,9.79924 46.64906,8.87224 90.68601,20.2035 131.47386,34.59347 21.0642,8.49782 42.01637,17.21238 60.43756,30.82299 5.80375,5.57118 12.38464,10.26644 13.58393,21.02732 -0.55812,7.0632 -5.59901,12.32233 -12.7814,16.71961 -11.36978,10.23893 -31.13026,7.87962 -48.20377,9.55474 -27.52722,0.14894 -51.39827,-14.18523 -87.93308,-17.66143 -24.86119,-1.40584 -61.2162,-9.47696 -91.2602,-14.86411 -38.62801,-9.14919 -64.18162,-7.09082 -106.50135,-23.95242 L 278.08232,200.9061 c -13.29666,-6.79271 -12.77298,-17.10075 -16.4853,-26.33131 z"
       id="path4216"
       inkscape:connector-curvature="0"
       sodipodi:nodetypes="ccccccccccccc" />
    <path
       style="fill:#552200;stroke:#000000;stroke-width:2.29020786px;stroke-linecap:butt;stroke-linejoin:miter;stroke-opacity:1"
       d="m 368.6769,188.55118 c 73.70905,40.09903 208.87573,30.93661 208.87573,30.93661 -0.50262,-41.79551 0.21474,-84.12944 -9.48124,-121.86741 -33.13363,12.09007 -66.26201,5.77197 -99.39163,3.89252 -36.77304,-2.17952 -59.58648,-13.34281 -84.87485,-22.91337 -11.51193,34.8281 -11.7791,72.82397 -15.12801,109.95165 z"
       id="path4208"
       inkscape:connector-curvature="0"
       sodipodi:nodetypes="cccccc" />
    <path
       style="fill:#552200;stroke:#000000;stroke-width:2.29020786px;stroke-linecap:butt;stroke-linejoin:miter;stroke-opacity:1"
       d="m 383.52168,78.23615 c 47.80604,-17.71445 68.79564,-18.14131 90.81807,-17.39196 50.43145,6.34876 71.7751,22.45239 93.9626,36.30131"
       id="path4210"
       inkscape:connector-curvature="0"
       sodipodi:nodetypes="ccc" />
    <path
       style="fill:#552200;stroke:#000000;stroke-width:2.29020786px;stroke-linecap:butt;stroke-linejoin:miter;stroke-opacity:1"
       d="m 370.09206,169.81461 c 109.19935,52.94997 209.75045,29.22214 206.34942,32.41752"
       id="path4214"
       inkscape:connector-curvature="0"
       sodipodi:nodetypes="cc" />
    <path
       style="fill:#784421;fill-opacity:1;stroke:none"
       d="m 574.57405,218.26956 c -24.2289,1.29432 -56.7976,0.78419 -83.18934,-1.30298 -43.69098,-3.45531 -78.78392,-10.80912 -106.77489,-22.37497 -4.91951,-2.03273 -13.74242,-6.21089 -14.42338,-6.83031 -0.13303,-0.12089 0.012,-3.36521 0.32082,-7.20954 0.30937,-3.84434 0.59139,-7.37195 0.62668,-7.83914 l 0.0642,-0.84944 3.95576,1.8268 c 44.68646,20.63647 94.87922,31.80246 145.71197,32.41544 15.40049,0.18569 27.86598,-0.34705 44.03362,-1.882 l 11.16895,-1.06 0.076,0.79801 c 0.0774,0.81251 0.24572,13.33196 0.18686,13.90327 -0.0183,0.17859 -0.77315,0.35269 -1.75729,0.40535 z"
       id="path4240"
       inkscape:connector-curvature="0" />
    <path
       style="fill:#c8ab37;stroke:#000000;stroke-width:1.49984956px;stroke-linecap:butt;stroke-linejoin:miter;stroke-opacity:1"
       d="m 285.27957,762.38802 c -14.67487,1.55465 -29.73851,1.20465 -44.24556,-1.49985 -5.98419,-1.11562 -12.17338,-2.63777 -17.24827,-5.9994 -5.90182,-3.9094 -11.46418,-9.23981 -14.24857,-15.74842 -4.0419,-9.44811 -2.65217,-20.47842 -2.24978,-30.74691 0.5842,-14.90768 6.89376,-29.32713 6.74933,-44.24557 -0.0712,-7.35589 -0.6322,-15.08479 -3.74963,-21.74781 -2.78064,-5.94322 -7.50089,-11.05969 -12.74872,-14.9985 -6.35375,-4.76888 -14.08588,-7.64973 -21.74782,-9.74902 -19.16924,-5.25219 -56.87711,-7.41137 -56.87711,-7.41137 L 5.4290969,694.04946 c 0,0 40.7189261,1.73315 59.8881641,6.98534 7.661936,2.09929 15.394081,4.98014 21.747818,9.74902 5.247824,3.93882 9.968071,9.05528 12.748721,14.9985 3.11742,6.66302 4.28773,14.25131 4.35894,21.6072 0.14443,14.91844 -6.16513,29.33789 -6.74932,44.24556 -0.4024,10.2685 -1.79213,21.29881 2.24977,30.74692 2.7844,6.50861 8.34675,11.83902 14.24857,15.74842 5.07489,3.36163 11.26408,4.88378 17.24827,5.9994 14.50705,2.7045 29.57069,3.0545 44.24556,1.49985 7.17456,-0.76008 16.87331,-2.76535 16.87331,-2.76535 l 113.75421,-84.2728 c 0,0 -13.58898,3.03642 -20.76354,3.7965 z"
       inkscape:connector-curvature="0"
       sodipodi:nodetypes="sssssssssccsssssssssccs"
       id="path32" />
    <path
       style="fill:#800000;stroke:#000000;stroke-width:1.49984956px;stroke-linecap:butt;stroke-linejoin:miter;stroke-opacity:1"
       d="m 125.74611,806.66374 c 7.08638,-4.85986 14.22678,-9.6873 16.14271,-17.64942 0,0 2.35807,18.31912 9.13086,18.15766 5.32039,-0.12674 6.88274,-14.58926 6.88274,-14.58926 3.72279,7.56022 9.79295,11.36466 17.04184,13.28313 l 0.14429,-0.10409 c 0,0 -14.7695,1.46729 -14.32079,6.72138 0.4978,5.82855 16.92081,4.65438 16.92081,4.65438 -9.12525,4.37194 -12.17442,10.56671 -18.1267,15.89053 0,0 -1.43783,-12.56146 -6.0893,-12.55573 -4.66657,0.006 -6.07808,12.61147 -6.07808,12.61147 -5.85134,-9.46407 -11.08404,-9.44238 -18.25671,-12.50005 0,0 11.5161,-2.27068 11.3572,-6.65581 -0.19846,-5.47664 -14.74884,-7.26423 -14.74884,-7.26423 z"
       id="path3170"
       inkscape:connector-curvature="0"
       sodipodi:nodetypes="ccscccsccsccscc" />
    <path
       style="fill:#803300;stroke:#000000;stroke-width:1.49984956px;stroke-linecap:butt;stroke-linejoin:miter;stroke-opacity:1"
       d="m 707.89267,666.70924 43.78644,-72.06643 22.62403,14.80732 -52.36579,86.23821 -24.72121,-14.48956 z"
       id="path3013-8"
       inkscape:connector-curvature="0" />
    <path
       style="fill:none;stroke:#000000;stroke-width:1.49984956px;stroke-linecap:butt;stroke-linejoin:miter;stroke-opacity:1"
       d="m 748.36941,599.19968 c 7.01441,13.55217 17.11102,23.55347 17.11102,23.55347"
       id="path3017-6"
       inkscape:connector-curvature="0" />
    <path
       style="fill:none;stroke:#000000;stroke-width:1.49984956px;stroke-linecap:butt;stroke-linejoin:miter;stroke-opacity:1"
       d="m 739.09101,614.95228 c 5.86254,14.79936 16.55494,24.30816 16.55494,24.30816"
       id="path3019-37"
       inkscape:connector-curvature="0" />
    <path
       style="fill:none;stroke:#000000;stroke-width:1.49984956px;stroke-linecap:butt;stroke-linejoin:miter;stroke-opacity:1"
       d="m 721.05055,645.44072 c 5.86254,14.79936 16.55494,24.30813 16.55494,24.30813"
       id="path3019-3-7"
       inkscape:connector-curvature="0" />
    <path
       style="fill:none;stroke:#000000;stroke-width:1.49984956px;stroke-linecap:butt;stroke-linejoin:miter;stroke-opacity:1"
       d="m 711.54971,661.49519 c 5.86254,14.79937 16.55493,24.30814 16.55493,24.30814"
       id="path3019-0-2"
       inkscape:connector-curvature="0" />
    <path
       style="fill:none;stroke:#000000;stroke-width:1.49984956px;stroke-linecap:butt;stroke-linejoin:miter;stroke-opacity:1"
       d="m 705.44091,670.73388 c 5.86254,14.79936 16.55494,24.30812 16.55494,24.30812"
       id="path3019-9-3"
       inkscape:connector-curvature="0" />
    <path
       style="fill:none;stroke:#000000;stroke-width:1.49984956px;stroke-linecap:butt;stroke-linejoin:miter;stroke-opacity:1"
       d="m 744.15918,606.80986 c 5.86254,14.79937 16.55494,24.30815 16.55494,24.30815"
       id="path3019-2-7"
       inkscape:connector-curvature="0" />
    <path
       style="fill:none;stroke:#000000;stroke-width:1.49984956px;stroke-linecap:butt;stroke-linejoin:miter;stroke-opacity:1"
       d="m 729.47102,630.22033 c 5.86255,14.79938 16.55494,24.30814 16.55494,24.30814"
       id="path3019-5-2"
       inkscape:connector-curvature="0" />
    <path
       style="fill:none;stroke:#000000;stroke-width:1.49984956px;stroke-linecap:butt;stroke-linejoin:miter;stroke-opacity:1"
       d="m 733.35556,624.00032 c 5.86255,14.79936 16.55493,24.30812 16.55493,24.30812"
       id="path3019-4-5"
       inkscape:connector-curvature="0" />
    <path
       style="fill:none;stroke:#000000;stroke-width:1.49984956px;stroke-linecap:butt;stroke-linejoin:miter;stroke-opacity:1"
       d="m 724.77621,638.17211 c 5.86253,14.79936 16.55493,24.30813 16.55493,24.30813"
       id="path3019-05-3"
       inkscape:connector-curvature="0" />
    <path
       style="fill:none;stroke:#000000;stroke-width:1.49984956px;stroke-linecap:butt;stroke-linejoin:miter;stroke-opacity:1"
       d="m 716.91181,652.63782 c 5.86253,14.79937 16.55493,24.30813 16.55493,24.30813"
       id="path3019-94-7"
       inkscape:connector-curvature="0" />
    <path
       style="fill:none;stroke:#000000;stroke-width:1.49984956px;stroke-linecap:butt;stroke-linejoin:miter;stroke-opacity:1"
       d="m 753.2946,591.88341 c 5.86254,14.79936 16.55494,24.30812 16.55494,24.30812"
       id="path3019-2-4-6"
       inkscape:connector-curvature="0" />
    <path
       style="fill:#28170b;stroke:#000000;stroke-width:1.37601316px;stroke-linecap:butt;stroke-linejoin:miter;stroke-opacity:1"
       d="m 752.2164,594.4012 c 0,0 18.41694,-33.44323 31.45213,-47.09892 14.55747,-15.25043 32.12932,-27.95155 50.91018,-37.5315 11.39476,-5.81239 23.78074,-11.28879 36.56757,-11.63752 26.88553,-0.73323 55.30678,5.97479 78.10629,20.24193 16.09749,10.07324 28.62778,26.28617 36.96412,43.34796 9.55631,19.55859 16.40121,42.43995 13.15911,63.96551 -3.1116,20.65906 -14.43829,41.17868 -30.15165,54.9471 -19.46121,17.05239 -46.52844,29.42102 -72.36878,28.07954 -25.49005,-1.32328 -50.09448,-16.88658 -68.13584,-34.94216 -13.69265,-13.70345 -25.01536,-32.4166 -26.47894,-51.73321 -1.24689,-16.45674 5.7825,-33.74842 15.66051,-46.96976 11.21568,-15.01161 27.91694,-27.64266 46.09998,-32.17228 17.51422,-4.36303 37.82886,-1.96165 53.75244,6.53677 14.43183,7.70225 26.16675,21.90623 32.0385,37.17464 4.74843,12.34749 3.52403,26.70851 0.91027,39.67679 -1.28834,6.39206 -7.98921,17.85603 -7.98921,17.85603 0,0 3.12997,-10.69345 3.32659,-16.2039 0.4279,-11.99259 0.64459,-24.9512 -4.70809,-35.69151 -5.72815,-11.49376 -15.87975,-21.47428 -27.46289,-27.01949 -14.88832,-7.12753 -33.35081,-10.36932 -49.18826,-5.71755 -13.51546,3.96976 -25.51418,14.67132 -32.67036,26.80455 -6.17118,10.46313 -8.8075,23.89512 -6.59835,35.84003 2.40663,13.01284 10.77556,25.11108 20.67713,33.89087 15.72783,13.94597 36.35612,26.26229 57.37625,26.16609 17.87879,-0.0819 35.77923,-10.23597 48.59591,-22.70155 10.7584,-10.4637 17.80222,-25.42888 20.18122,-40.24687 2.18489,-13.609 -0.47431,-28.29456 -6.03271,-40.90736 -6.25621,-14.19632 -16.26805,-27.81984 -29.4006,-36.07891 -17.83827,-11.2185 -40.39659,-14.74115 -61.46927,-14.76671 -8.94375,-0.0105 -17.97217,2.48093 -26.10416,6.20408 -16.5133,7.56049 -31.41453,18.97078 -44.1736,31.8958 -12.25603,12.41544 -30.0874,42.82443 -30.0874,42.82443 z"
       id="path3399"
       inkscape:connector-curvature="0"
       sodipodi:nodetypes="cssssssssssssssscssssssssssssssscc" />
    <path
       sodipodi:type="arc"
       style="fill:#000000;fill-opacity:1"
       id="path3405"
       sodipodi:cx="124.27402"
       sodipodi:cy="569.9386"
       sodipodi:rx="2.1213202"
       sodipodi:ry="2.1213202"
       d="m 126.39534,569.9386 a 2.1213202,2.1213202 0 1 1 -2e-5,-0.009 l -2.1213,0.009 z"
       sodipodi:start="0"
       sodipodi:end="6.2791766"
       transform="matrix(1.4998495,0,0,1.4998495,-86.330456,-167.72491)" />
    <path
       style="fill:none;stroke:#000000;stroke-width:1.49984956px;stroke-linecap:butt;stroke-linejoin:miter;stroke-opacity:1"
       d="m 100.06188,686.83206 c 0,0 -2.56185,-4.78888 -2.91654,-7.42386 m 0.79542,-7.42388 c 0.86159,-2.01916 2.49501,-3.70849 4.24222,-5.03764 m 6.36332,-2.91651 c 2.10252,0.15441 3.24296,1.9666 5.30276,2.41565 m 4.81524,-1.1543 c 1.35303,-1.63591 1.44144,-3.21329 2.07837,-5.23843 m 4.24222,-5.56791 c 1.66986,-1.33159 3.69764,-2.61047 5.83304,-2.65139 m 5.83305,2.38625 c 1.73883,1.61255 1.37785,4.8238 3.18166,6.36332 m 5.03763,1.59083 c 1.75532,0.22585 3.6078,0.24406 5.30276,-0.26513 m 5.83305,-3.4468 c 2.73558,-1.35465 5.43339,-3.34894 8.48443,-3.44681 m 5.5679,1.85598 c 1.99728,1.67989 3.02541,4.37569 3.71195,6.89359 m 0.26513,6.89361 c -0.039,2.56879 0.22517,5.2335 -0.53027,7.68901 m -3.71193,6.36332 c -1.51863,2.43283 -3.48191,4.59762 -4.7725,7.15874 m -2.38624,6.62846 c -0.71295,2.27039 -0.52813,4.91882 -1.85598,6.8936 m -6.62846,5.03763 c -2.58586,0.68419 -5.67609,0.34131 -7.95415,-1.06056 m -3.44681,-5.03762 c -0.38777,-1.55294 -0.12043,-3.31011 0.53029,-4.77249 m 4.24222,-4.77249 c 1.94908,-1.16793 4.36473,-1.39438 6.62845,-1.59083 m 6.76104,0.13259 c 3.82626,0.42994 3.61459,3.07794 7.29796,4.19949 m 4.33848,2.25229 c 1.63084,1.88002 3.73524,3.26492 3.80844,5.75263 m 0.0657,7.81354 c 0.0531,2.65821 1.24191,5.17986 2.12112,7.68902 m 3.18166,7.42388 c -0.006,2.88961 -1.79771,5.58132 -3.44681,7.95415 m -6.62846,6.36333 c -0.9495,2.79282 0.71895,5.86283 1.3257,8.74956 m 2.65138,9.81013 c 1.68287,2.78279 5.85671,3.6484 7.15875,6.62845 m 0,8.74957 c -1.07581,2.27021 -4.20663,2.85781 -5.83305,4.77249 m -3.97708,6.89361 c -1.17662,1.89503 -3.71195,5.5679 -3.71195,5.5679"
       id="path3407"
       inkscape:connector-curvature="0"
       sodipodi:nodetypes="sccccccccccccccccccccccccccccccccccccccccccccs" />
    <path
       style="fill:#000000;stroke:#000000;stroke-width:1.49984956px;stroke-linecap:butt;stroke-linejoin:miter;stroke-opacity:1"
       d="m 246.41961,777.38789 -25.97801,-10.10567 38.16591,21.48251 z"
       id="path5633"
       inkscape:connector-curvature="0" />
    <path
       style="fill:none;stroke:#000000;stroke-width:1.49984956px;stroke-linecap:butt;stroke-linejoin:miter;stroke-opacity:1"
       d="m 240.73287,785.23182 17.503,3.48306 -37.88152,-20.78231 c 6.90708,5.54649 13.62542,11.51186 20.37852,17.29925 z"
       id="path5635"
       inkscape:connector-curvature="0"
       sodipodi:nodetypes="cccc" />
    <path
       style="fill:none;stroke:#000000;stroke-width:1.49984956px;stroke-linecap:butt;stroke-linejoin:miter;stroke-opacity:1"
       d="m 216.23211,767.63992 -7.22064,-4.38851 9.20257,0.87732 -6.79144,-5.06472"
       id="path5637"
       inkscape:connector-curvature="0"
       sodipodi:nodetypes="cccc" />
    <path
       style="fill:none;stroke:#000000;stroke-width:1.49984956px;stroke-linecap:butt;stroke-linejoin:miter;stroke-opacity:1"
       d="m 238.83063,774.70714 18.24779,-7.08745 -11.57538,11.92529 z"
       id="path5653"
       inkscape:connector-curvature="0"
       sodipodi:nodetypes="cccc" />
    <path
       style="fill:#000000;stroke:#000000;stroke-width:1.49984956px;stroke-linecap:butt;stroke-linejoin:miter;stroke-opacity:1"
       d="m 252.0606,783.14988 3.94408,-12.558 -9.13953,8.12067 z"
       id="path5655"
       inkscape:connector-curvature="0"
       sodipodi:nodetypes="cccc" />
    <path
       style="fill:#000000;stroke:#000000;stroke-width:1.49984956px;stroke-linecap:butt;stroke-linejoin:miter;stroke-opacity:1"
       d="m 233.67702,780.51451 -1.43636,15.83805 7.90914,-11.57492 z"
       id="path5657"
       inkscape:connector-curvature="0"
       sodipodi:nodetypes="cccc" />
    <path
       style="fill:none;stroke:#000000;stroke-width:1.49984956px;stroke-linecap:butt;stroke-linejoin:miter;stroke-opacity:1"
       d="m 248.08384,787.28327 -16.17585,12.04015 7.99,-14.45641 z"
       id="path5659"
       inkscape:connector-curvature="0"
       sodipodi:nodetypes="cccc" />
    <path
       sodipodi:type="arc"
       style="fill:#000000;fill-opacity:1;stroke:none"
       id="path5698"
       sodipodi:cx="142.3125"
       sodipodi:cy="607.23718"
       sodipodi:rx="11.5625"
       sodipodi:ry="11.625"
       d="m 153.875,607.23718 a 11.5625,11.625 0 1 1 0,-7.7e-4 l -11.5625,7.7e-4 z"
       sodipodi:start="0"
       sodipodi:end="6.2831189"
       transform="matrix(1.4998495,0,0,1.4998495,-86.330456,-167.72491)" />
    <rect
       style="fill:#000000;fill-opacity:1;stroke:none"
       id="rect5700"
       width="14.436052"
       height="19.685526"
       x="-570.37964"
       y="511.04901"
       ry="0"
       transform="matrix(0.52999894,-0.8479983,0.8479983,0.52999894,0,0)" />
    <path
       sodipodi:type="arc"
       style="fill:#c8ab37;fill-opacity:1;stroke:none"
       id="path5702"
       sodipodi:cx="142.8125"
       sodipodi:cy="604.11218"
       sodipodi:rx="2.9375"
       sodipodi:ry="2.75"
       d="m 145.75,604.11218 a 2.9375,2.75 0 1 1 0,-1.8e-4 l -2.9375,1.8e-4 z"
       sodipodi:start="0"
       sodipodi:end="6.2831189"
       transform="matrix(1.4998495,0,0,1.4998495,-85.580532,-169.59972)" />
    <path
       transform="matrix(1.4998495,0,0,1.4998495,-92.423595,-159.66322)"
       sodipodi:type="arc"
       style="fill:#c8ab37;fill-opacity:1;stroke:none"
       id="path5702-3"
       sodipodi:cx="142.8125"
       sodipodi:cy="604.11218"
       sodipodi:rx="2.9375"
       sodipodi:ry="2.75"
       d="m 145.75,604.11218 a 2.9375,2.75 0 1 1 0,-1.8e-4 l -2.9375,1.8e-4 z"
       sodipodi:start="0"
       sodipodi:end="6.2831189" />
    <rect
       style="fill:#c8ab37;fill-opacity:1;stroke:none"
       id="rect5726"
       width="1.4998496"
       height="13.123684"
       x="-572.13654"
       y="513.03674"
       transform="matrix(0.5231564,-0.85223669,0.85223669,0.5231564,0,0)" />
    <rect
       style="fill:#c8ab37;fill-opacity:1;stroke:none"
       id="rect5726-1"
       width="1.4998496"
       height="13.123684"
       x="-567.92371"
       y="513.09058"
       transform="matrix(0.5231564,-0.85223669,0.85223669,0.5231564,0,0)" />
    <rect
       style="fill:#c8ab37;fill-opacity:1;stroke:none"
       id="rect5726-8"
       width="0.7151137"
       height="5.0634274"
       x="-338.76459"
       y="780.08197"
       transform="matrix(0.94511383,-0.32674125,0.57780683,0.81617355,0,0)" />
    <rect
       style="fill:#c8ab37;fill-opacity:1;stroke:none"
       id="rect5726-2"
       width="1.4998496"
       height="13.123684"
       x="-564.1286"
       y="513.18073"
       transform="matrix(0.5231564,-0.85223669,0.85223669,0.5231564,0,0)" />
    <rect
       style="fill:#c8ab37;fill-opacity:1;stroke:none"
       id="rect5726-8-0"
       width="0.7151137"
       height="5.0634274"
       x="-702.7005"
       y="-153.75851"
       transform="matrix(0.0143247,-0.9998974,-0.95606918,-0.29314114,0,0)" />
    <text
       xml:space="preserve"
       style="font-size:64px;font-style:normal;font-weight:normal;line-height:300%;letter-spacing:0px;word-spacing:0px;fill:#000000;fill-opacity:1;stroke:none;font-family:Sans"
       x="173.15433"
       y="999.04132"
       id="text3042"
       sodipodi:linespacing="300%"><tspan
         sodipodi:role="line"
         id="tspan3044"
         x="173.15433"
         y="999.04132"
         style="font-size:144px">SvakSvat</tspan></text>
  </g>
</svg>
